<svg width="1200" height="630" viewBox="0 0 1200 630" xmlns="http://www.w3.org/2000/svg">
  <defs>
    <linearGradient id="logo-grad" x1="0%" y1="0%" x2="100%" y2="100%">
      <stop offset="0%" stop-color="#f5ede9"/>
      <stop offset="40%" stop-color="#e8bcc4"/>
      <stop offset="100%" stop-color="#ff8fa3"/>
    </linearGradient>
    <radialGradient id="glow-left" cx="20%" cy="0%" r="60%">
      <stop offset="0%" stop-color="#ffb3c1" stop-opacity="0.12"/>
      <stop offset="100%" stop-color="#ffb3c1" stop-opacity="0"/>
    </radialGradient>
    <radialGradient id="glow-right" cx="80%" cy="100%" r="60%">
      <stop offset="0%" stop-color="#ffb3c1" stop-opacity="0.08"/>
      <stop offset="100%" stop-color="#ffb3c1" stop-opacity="0"/>
    </radialGradient>
  </defs>

  <!-- Background -->
  <rect width="1200" height="630" fill="#1a1512"/>
  <rect width="1200" height="630" fill="url(#glow-left)"/>
  <rect width="1200" height="630" fill="url(#glow-right)"/>

  <!-- Logo centered — scaled 2x from 344x78 to 688x156 -->
  <g transform="translate(256, 200) scale(2)">
    <path fill="url(#logo-grad)" d="M0,0h48v14h-48Z M72,0h48v14h-48Z M136,0h48v14h-48Z M200,0h48v14h-48Z M272,0h40v14h-40Z M328,0h16v14h-16Z M0,16h16v14h-16Z M40,16h16v14h-16Z M64,16h16v14h-16Z M112,16h16v14h-16Z M136,16h16v14h-16Z M176,16h16v14h-16Z M200,16h16v14h-16Z M240,16h16v14h-16Z M264,16h16v14h-16Z M304,16h16v14h-16Z M328,16h16v14h-16Z M0,32h48v14h-48Z M64,32h16v14h-16Z M112,32h16v14h-16Z M136,32h48v14h-48Z M200,32h48v14h-48Z M264,32h56v14h-56Z M328,32h16v14h-16Z M0,48h16v14h-16Z M40,48h16v14h-16Z M64,48h16v14h-16Z M112,48h16v14h-16Z M136,48h16v14h-16Z M176,48h16v14h-16Z M200,48h16v14h-16Z M240,48h16v14h-16Z M264,48h16v14h-16Z M304,48h16v14h-16Z M328,48h16v14h-16Z M0,64h48v14h-48Z M72,64h48v14h-48Z M136,64h48v14h-48Z M200,64h48v14h-48Z M264,64h16v14h-16Z M304,64h16v14h-16Z M328,64h16v14h-16Z"/>
  </g>

  <!-- Tagline -->
  <text x="600" y="440" text-anchor="middle" font-family="'Courier New', Courier, monospace" font-size="22" fill="#d7ccc8" opacity="0.6">notes before midnight — tracking AI, tech &amp; what comes next</text>

  <!-- Doomsday clock -->
  <g transform="translate(600, 530)">
    <circle cx="0" cy="0" r="20" fill="none" stroke="#ffb3c1" stroke-width="1.5" opacity="0.4"/>
    <line x1="0" y1="0" x2="0" y2="-14" stroke="#ffb3c1" stroke-width="1.5" stroke-linecap="round" transform="rotate(344)" opacity="0.4"/>
    <line x1="0" y1="0" x2="0" y2="-10" stroke="#ffb3c1" stroke-width="2" stroke-linecap="round" transform="rotate(359)" opacity="0.4"/>
  </g>
</svg>
